HIERARCHY
ROOT SpineBase
{
  OFFSET 0.000000 0.000000 0.000000
  CHANNELS 6 Xposition Yposition Zposition Zrotation Xrotation Yrotation
  JOINT SpineMid
  {
    OFFSET 0.000000 34.951304 0.000000
    CHANNELS 3 Zrotation Xrotation Yrotation
    JOINT SpineShoulder
    {
      OFFSET 0.177542 26.101941 -0.654647
      CHANNELS 3 Zrotation Xrotation Yrotation
      JOINT Neck
      {
        OFFSET 0.105175 8.663308 -0.533062
        CHANNELS 3 Zrotation Xrotation Yrotation
        JOINT Head
        {
          OFFSET 0.196313 12.620172 4.587869
          CHANNELS 3 Zrotation Xrotation Yrotation
          End Site
          {
            OFFSET 0 0 0
          }
        }
      }
      JOINT ShoulderLeft
      {
        OFFSET -13.426279 -7.193945 -6.740149
        CHANNELS 3 Zrotation Xrotation Yrotation
        JOINT ElbowLeft
        {
          OFFSET -5.301278 -23.925582 4.734147
          CHANNELS 3 Zrotation Xrotation Yrotation
          JOINT WristLeft
          {
            OFFSET -2.147284 -23.340017 3.990054
            CHANNELS 3 Zrotation Xrotation Yrotation
            JOINT HandLeft
            {
              OFFSET -1.102860 -6.216842 0.511057
              CHANNELS 3 Zrotation Xrotation Yrotation
              JOINT HandTipLeft
              {
                OFFSET 0.867089 -4.975762 -0.855352
                CHANNELS 3 Zrotation Xrotation Yrotation
                End Site
                {
                  OFFSET 0 0 0
                }
              }
              JOINT ThumbLeft
              {
                OFFSET -0.533558 -0.000789 -0.836810
                CHANNELS 3 Zrotation Xrotation Yrotation
                End Site
                {
                  OFFSET 0 0 0
                }
              }
            }
          }
        }
      }
      JOINT ShoulderRight
      {
        OFFSET 14.847471 -6.542810 -6.922906
        CHANNELS 3 Zrotation Xrotation Yrotation
        JOINT ElbowRight
        {
          OFFSET 6.609995 -24.014354 3.267806
          CHANNELS 3 Zrotation Xrotation Yrotation
          JOINT WristRight
          {
            OFFSET -0.047568 -25.479803 7.796254
            CHANNELS 3 Zrotation Xrotation Yrotation
            JOINT HandRight
            {
              OFFSET -0.183368 -3.344768 1.755586
              CHANNELS 3 Zrotation Xrotation Yrotation
              JOINT HandTipRight
              {
                OFFSET -0.486388 -5.903998 0.896906
                CHANNELS 3 Zrotation Xrotation Yrotation
                End Site
                {
                  OFFSET 0 0 0
                }
              }
              JOINT ThumbRight
              {
                OFFSET -0.714202 0.943795 -1.915865
                CHANNELS 3 Zrotation Xrotation Yrotation
                End Site
                {
                  OFFSET 0 0 0
                }
              }
            }
          }
        }
      }
    }
  }
  JOINT HipLeft
  {
    OFFSET -7.381521 1.402024 -2.846331
    CHANNELS 3 Zrotation Xrotation Yrotation
    JOINT KneeLeft
    {
      OFFSET -3.985601 -28.250329 -4.279529
      CHANNELS 3 Zrotation Xrotation Yrotation
      JOINT AnkleLeft
      {
        OFFSET -0.956498 -35.715611 -0.483573
        CHANNELS 3 Zrotation Xrotation Yrotation
        JOINT FootLeft
        {
          OFFSET 0.096001 -2.836543 -9.343553
          CHANNELS 3 Zrotation Xrotation Yrotation
          End Site
          {
            OFFSET 0 0 0
          }
        }
      }
    }
  }
  JOINT HipRight
  {
    OFFSET 7.814205 1.555144 -3.200838
    CHANNELS 3 Zrotation Xrotation Yrotation
    JOINT KneeRight
    {
      OFFSET 3.304903 -29.901452 -1.996724
      CHANNELS 3 Zrotation Xrotation Yrotation
      JOINT AnkleRight
      {
        OFFSET -0.226657 -35.591562 0.530459
        CHANNELS 3 Zrotation Xrotation Yrotation
        JOINT FootRight
        {
          OFFSET 0.455330 -3.945374 -3.895593
          CHANNELS 3 Zrotation Xrotation Yrotation
          End Site
          {
            OFFSET 0 0 0
          }
        }
      }
    }
  }
}
MOTION
Frames: 13
Frame Time: 0.033333
-16.387304 68.065105 248.664969 -0.000000 0.000000 1.336431 -0.000000 -0.000000 -1.336431 -0.000000 0.000000 0.000000 -0.000000 0.000000 0.000000 0.000000 0.000000 0.000000 -0.000000 0.000000 0.000000 -0.000000 0.000000 0.000000 -0.000000 0.000000 0.000000 -0.000000 0.000000 0.000000 0.000000 0.000000 0.000000 0.000000 0.000000 0.000000 -0.000000 0.000000 0.000000 -0.000000 0.000000 0.000000 -0.000000 0.000000 0.000000 -0.000000 0.000000 0.000000 0.000000 0.000000 0.000000 0.000000 0.000000 0.000000 -0.000000 -0.000000 -1.336431 -0.000000 0.000000 0.000000 -0.000000 0.000000 0.000000 0.000000 0.000000 0.000000 -0.000000 -0.000000 -1.336431 -0.000000 0.000000 0.000000 -0.000000 0.000000 0.000000 0.000000 0.000000 0.000000
-16.417376 68.091146 248.669216 -0.065552 0.027917 1.134137 0.064987 -0.029209 -1.134105 -0.000000 0.000000 0.000000 1.633423 0.207853 -0.599774 0.000000 0.000000 0.000000 -0.000000 0.000000 0.000000 -0.000000 0.000000 0.000000 -0.000000 0.000000 0.000000 -1.616954 -4.903653 -0.652709 0.000000 0.000000 0.000000 0.000000 0.000000 0.000000 -0.000000 0.000000 0.000000 -0.000000 0.000000 0.000000 -7.183758 11.652154 -3.875379 14.683301 -17.159665 8.418568 0.000000 0.000000 0.000000 0.000000 0.000000 0.000000 0.064987 -0.029209 -1.134105 -0.000000 0.000000 0.000000 0.271309 4.134458 -0.682308 0.000000 0.000000 0.000000 0.064987 -0.029209 -1.134105 -0.000000 0.000000 0.000000 -0.934397 17.045577 2.653782 0.000000 0.000000 0.000000
-16.443006 68.114892 248.671894 -0.123001 0.056842 0.863864 0.122130 -0.058690 -0.863740 -0.000000 0.000000 0.000000 3.201215 0.367120 -1.179122 0.000000 0.000000 0.000000 0.091439 0.828182 -0.166341 -0.089044 -0.828443 0.165037 0.829915 1.206847 -0.154951 -3.724706 -9.636684 -1.127967 0.000000 0.000000 0.000000 0.000000 0.000000 0.000000 -0.000000 0.000000 0.000000 0.604046 1.282206 0.176279 -12.261002 18.484688 -6.211805 27.354800 -26.819509 17.450108 0.000000 0.000000 0.000000 0.000000 0.000000 0.000000 0.122130 -0.058690 -0.863740 -0.000000 0.000000 0.000000 0.435730 6.277518 -1.055664 0.000000 0.000000 0.000000 0.122130 -0.058690 -0.863740 -0.000000 0.000000 0.000000 -1.676515 25.665491 4.126595 0.000000 0.000000 0.000000
-16.464196 68.136343 248.673002 -0.172343 0.086779 0.525648 0.171540 -0.088356 -0.525385 -0.000000 0.000000 0.000000 4.702955 0.479818 -1.736148 0.000000 0.000000 0.000000 0.238420 1.261470 -0.235590 -0.233288 -1.262429 0.230395 1.517196 1.740745 -0.207899 -5.476367 -12.704503 -1.607797 0.000000 0.000000 0.000000 0.000000 0.000000 0.000000 0.407145 -0.983753 -0.211434 0.544572 2.999457 0.477451 -15.346329 22.910734 -7.489988 37.046379 -31.577345 24.899455 0.000000 0.000000 0.000000 0.000000 0.000000 0.000000 0.171540 -0.088356 -0.525385 -0.000000 0.000000 0.000000 0.512780 7.155851 -1.225927 0.000000 0.000000 0.000000 0.171540 -0.088356 -0.525385 -0.000000 0.000000 0.000000 -2.100030 30.391409 4.922657 0.000000 0.000000 0.000000
-16.480944 68.155498 248.672540 -0.213573 0.117730 0.119529 0.213328 -0.118174 -0.119089 -0.000000 0.000000 0.000000 6.138699 0.547968 -2.269324 0.000000 0.000000 0.000000 0.452719 1.707489 -0.296663 -0.444071 -1.709758 0.283290 2.406932 2.218858 -0.243695 -7.282626 -14.963721 -2.027080 0.000000 0.000000 0.000000 0.000000 0.000000 0.000000 0.535136 -1.364880 -0.295649 0.793842 4.150693 0.654670 -17.257614 25.165380 -8.354992 43.457450 -33.585099 29.928994 0.000000 0.000000 0.000000 0.000000 0.000000 0.000000 0.213328 -0.118174 -0.119089 -0.000000 0.000000 0.000000 0.512436 7.021844 -1.232194 0.000000 0.000000 0.000000 0.213328 -0.118174 -0.119089 -0.000000 0.000000 0.000000 -2.245466 33.095254 5.273919 0.000000 0.000000 0.000000
-16.493251 68.172359 248.670509 -0.246687 0.149698 -0.354438 0.247609 -0.148167 0.355080 -0.000000 0.000000 0.000000 7.508906 0.573531 -2.777456 0.000000 0.000000 0.000000 0.734226 2.166201 -0.350436 -0.721484 -2.170476 0.322887 3.515066 2.633556 -0.260961 -9.211339 -16.535099 -2.383853 0.000000 0.000000 0.000000 0.000000 0.000000 0.000000 0.659116 -1.772851 -0.386702 1.059595 5.337402 0.834028 -18.335133 25.826483 -8.997731 46.832474 -34.087059 32.517920 0.000000 0.000000 0.000000 0.000000 0.000000 0.000000 0.247609 -0.148167 0.355080 -0.000000 0.000000 0.000000 0.433901 5.841685 -1.073019 0.000000 0.000000 0.000000 0.247609 -0.148167 0.355080 -0.000000 0.000000 0.000000 -2.149728 34.575293 5.289127 0.000000 0.000000 0.000000
-16.500373 68.187388 248.663662 -0.267523 0.189587 -0.967246 0.270687 -0.185042 0.968126 -0.000000 0.000000 0.000000 9.206526 0.657474 -3.413420 0.000000 0.000000 0.000000 1.187874 2.675966 -0.388410 -1.170998 -2.683390 0.333237 5.100345 2.453862 -0.126355 -11.774148 -18.029513 -2.984183 0.000000 0.000000 0.000000 0.000000 0.000000 0.000000 0.697958 -2.236834 -0.504976 1.617545 7.166330 1.065955 -19.700053 25.078799 -10.065598 49.124340 -32.130380 33.677651 0.000000 0.000000 0.000000 0.000000 0.000000 0.000000 0.270687 -0.185042 0.968126 -0.000000 0.000000 0.000000 -0.015241 0.994666 0.081665 0.000000 0.000000 0.000000 0.270687 -0.185042 0.968126 -0.000000 0.000000 0.000000 -1.129335 32.570238 4.121951 0.000000 0.000000 0.000000
-16.502880 68.200183 248.657658 -0.278113 0.226540 -1.638496 0.284479 -0.218493 1.639588 -0.000000 0.000000 0.000000 10.674718 0.647696 -3.958522 0.000000 0.000000 0.000000 1.671382 3.184746 -0.425277 -2.528558 -3.491169 0.158276 8.101010 2.978159 0.034598 -16.012132 -20.713070 -3.935201 0.000000 0.000000 0.000000 0.000000 0.000000 0.000000 0.694311 -2.613005 -0.606145 2.180711 8.446005 1.262734 -19.397305 21.770483 -10.392813 44.942013 -29.690399 29.885159 0.000000 0.000000 0.000000 0.000000 0.000000 0.000000 0.284479 -0.218493 1.639588 -0.000000 0.000000 0.000000 -0.275716 -4.049295 0.861767 0.000000 0.000000 0.000000 0.284479 -0.218493 1.639588 -0.000000 0.000000 0.000000 -0.457882 32.561849 3.452814 0.000000 0.000000 0.000000
-16.505814 68.207467 248.650983 -0.289664 0.259246 -2.294097 0.299812 -0.247440 2.295400 -0.000000 0.000000 0.000000 11.899395 0.591167 -4.408964 0.000000 0.000000 0.000000 2.152968 3.667935 -0.460719 -3.205091 -4.136608 0.107276 9.855313 3.782164 -0.053409 -16.587677 -20.076151 -3.754336 0.000000 0.000000 0.000000 0.000000 0.000000 0.000000 0.898007 -3.042064 -0.687509 2.244939 9.070633 1.392708 -18.146780 19.231152 -9.948398 40.909818 -28.399269 26.611730 0.000000 0.000000 0.000000 0.000000 0.000000 0.000000 0.299812 -0.247440 2.295400 -0.000000 0.000000 0.000000 -0.378716 -8.416916 1.233275 0.000000 0.000000 0.000000 0.299812 -0.247440 2.295400 -0.000000 0.000000 0.000000 0.114333 32.545472 2.882272 0.000000 0.000000 0.000000
-16.502926 68.210896 248.644130 -0.293374 0.290652 -2.916397 0.307786 -0.275346 2.917881 -0.000000 0.000000 0.000000 12.430951 0.344442 -4.580077 0.000000 0.000000 0.000000 2.535275 4.083357 -0.499779 -3.765037 -4.655153 0.059157 11.143598 4.669144 -0.210653 -18.903290 -17.203904 -2.989664 0.000000 0.000000 0.000000 0.000000 0.000000 0.000000 1.283408 -3.713458 -0.800228 1.912978 9.274933 1.532621 -15.816525 15.866307 -8.739518 33.348524 -25.647116 20.846410 0.000000 0.000000 0.000000 0.000000 0.000000 0.000000 0.307786 -0.275346 2.917881 -0.000000 0.000000 0.000000 -0.336752 -11.042351 1.029810 0.000000 0.000000 0.000000 0.307786 -0.275346 2.917881 -0.000000 0.000000 0.000000 0.563493 32.527955 2.434329 0.000000 0.000000 0.000000
-16.494062 68.215046 248.646940 -0.308966 0.319490 -3.444905 0.327610 -0.300343 3.446625 -0.000000 0.000000 0.000000 12.519862 -0.105444 -4.563297 0.000000 0.000000 0.000000 2.758749 4.381591 -0.537834 -4.122703 -4.918870 0.022771 11.438818 4.740841 -0.199841 -18.544626 -13.107618 -1.897762 0.000000 0.000000 0.000000 0.000000 0.000000 0.000000 1.561754 -4.243730 -0.890382 1.366481 9.111757 1.597059 -12.909645 13.876155 -7.169675 26.186918 -23.340837 15.955947 0.000000 0.000000 0.000000 0.000000 0.000000 0.000000 0.327610 -0.300343 3.446625 -0.000000 0.000000 0.000000 -0.116417 -11.175495 -0.010832 0.000000 0.000000 0.000000 0.097810 0.515148 3.550567 0.178872 -0.828153 -0.102218 1.038019 32.504923 1.960991 0.000000 0.000000 0.000000
-16.479686 68.220825 248.657175 -0.327993 0.341227 -3.907960 0.350492 -0.318074 3.909910 -0.000000 0.000000 0.000000 12.063172 -0.643287 -4.337590 0.000000 0.000000 0.000000 2.859343 4.608712 -0.578713 -4.325243 -5.052698 0.004567 10.941422 5.030898 -0.279791 -19.779906 -9.688088 -0.772556 0.000000 0.000000 0.000000 0.000000 0.000000 0.000000 1.560477 -4.628868 -0.990184 1.048994 8.869150 1.646025 -10.262892 10.678311 -5.705192 19.738344 -19.261752 11.315993 0.000000 0.000000 0.000000 0.000000 0.000000 0.000000 0.350492 -0.318074 3.909910 -0.000000 0.000000 0.000000 0.343043 -8.786224 -1.876005 0.000000 0.000000 0.000000 0.058663 0.584393 4.027600 0.227749 -0.920730 -0.115182 1.652149 32.464721 1.347992 0.000000 0.000000 0.000000
-16.462015 68.223633 248.670130 -0.332234 0.328021 -4.257057 0.355671 -0.302449 4.258947 -0.000000 0.000000 0.000000 11.150933 -0.929504 -3.977574 0.000000 0.000000 0.000000 2.834183 4.703847 -0.606599 -4.394330 -5.002726 -0.008927 9.464720 4.397120 -0.159978 -19.709517 -11.825176 -1.212100 0.000000 0.000000 0.000000 0.000000 0.000000 0.000000 1.397512 -4.920970 -1.094994 0.895550 8.516920 1.688202 -8.629790 9.141888 -4.768413 15.800208 -15.859181 8.638372 0.000000 0.000000 0.000000 0.000000 0.000000 0.000000 0.355671 -0.302449 4.258947 -0.000000 0.000000 0.000000 0.986404 -4.583793 -3.873238 0.000000 0.000000 0.000000 0.024721 0.640973 4.383951 0.257902 -0.965951 -0.121852 1.689698 34.127825 1.434792 0.000000 0.000000 0.000000
